<?xml version="1.0" encoding="UTF-8"?>
<svg id="Layer_1" xmlns="http://www.w3.org/2000/svg" xmlns:xlink="http://www.w3.org/1999/xlink" version="1.1" viewBox="0 0 537.1 99">
  <!-- Generator: Adobe Illustrator 29.4.0, SVG Export Plug-In . SVG Version: 2.1.0 Build 152)  -->
  <defs>
    <style>
      .st0 {
        fill: url(#linear-gradient);
        fill-rule: evenodd;
      }

      .st1 {
        fill: #333;
      }
    </style>
    <linearGradient id="linear-gradient" x1="-7.5" y1="79.7" x2="59.4" y2="12.8" gradientUnits="userSpaceOnUse">
      <stop offset="0" stop-color="#ff5100"/>
      <stop offset="1" stop-color="#ffb300"/>
      <stop offset="1" stop-color="#fff"/>
    </linearGradient>
  </defs>
  <path class="st0" d="M16,57.7c.6-1.5,0-3.3-1.4-4l-13.4-7.1c-.2-.1-.4-.3-.6-.5-.8-.9-.7-2.2.1-3L45.3,1.7c.6-.6,1.5-.8,2.3-.5,1.1.4,1.6,1.7,1.1,2.8l-12.9,30.7c-.6,1.5,0,3.3,1.4,4l13.4,7.1c.2.1.4.3.6.5.8.9.7,2.2-.1,3L6.6,90.8c-.6.6-1.5.8-2.3.5-1.1-.4-1.6-1.7-1.1-2.8l12.9-30.7Z"/>
  <g>
    <path class="st1" d="M70,77.2V10.8h10.9v28.7c2.9-4.9,8.7-7.9,15.4-7.9,12.6,0,20.3,9.8,20.3,23.7s-8.3,22.9-21,22.9-12.2-2.9-14.8-8l-.7,6.9h-10.1ZM93.4,68.4c7.7,0,12.2-5.5,12.2-13.4s-4.6-13.5-12.2-13.5-12.4,5.5-12.4,13.5,4.9,13.4,12.4,13.4Z"/>
    <path class="st1" d="M149.3,43.1h-4c-7.9,0-12.8,4.2-12.8,12.8v21.4h-10.9v-44h10.3l.6,6.4c1.9-4.4,6.1-7.3,12-7.3s3,.2,4.8.6v10.1Z"/>
    <path class="st1" d="M149.4,64.6c0-8.1,5.9-13.2,16.3-14l13.2-1v-1c0-6-3.6-8.4-9.1-8.4s-10,2.7-10,7.3h-9.3c0-9.5,7.9-15.8,19.8-15.8s19.2,6.4,19.2,18.6v26.8h-9.5l-.8-6.5c-1.9,4.6-7.9,7.7-14.7,7.7s-15.1-5.4-15.1-13.7ZM179.1,59.4v-2.3l-9.2.7c-6.8.6-9.4,2.9-9.4,6.4s2.7,6,7.6,6,11-4,11-10.8Z"/>
    <path class="st1" d="M196.7,77.2v-44.1h10.1l.9,5.7c2.8-4.5,8.1-7,14.1-7,11.1,0,16.8,6.9,16.8,18.3v27.1h-10.9v-24.5c0-7.4-3.7-11-9.3-11s-10.8,4.6-10.8,11.8v23.7h-10.9Z"/>
    <path class="st1" d="M243.1,55.4c0-13.7,8-23.6,21.3-23.6s11.6,2.6,14.4,7V10.8h10.8v66.4h-10l-.7-6.9c-2.7,5.1-8.4,8-15.1,8-12.8,0-20.7-9.4-20.7-23ZM278.7,55c0-7.9-4.9-13.5-12.5-13.5s-12.2,5.6-12.2,13.5,4.6,13.4,12.2,13.4,12.5-5.4,12.5-13.4Z"/>
    <path class="st1" d="M296.1,17.7c0-3.7,2.9-6.5,6.7-6.5s6.5,2.9,6.5,6.5-2.9,6.6-6.5,6.6-6.7-2.9-6.7-6.6ZM297.4,33.1h10.9v44.1h-10.9v-44.1Z"/>
    <path class="st1" d="M315.9,77.2v-44.1h10.1l.9,5.7c2.8-4.5,8.1-7,14.1-7,11.1,0,16.8,6.9,16.8,18.3v27.1h-10.9v-24.5c0-7.4-3.7-11-9.3-11s-10.8,4.6-10.8,11.8v23.7h-10.9Z"/>
    <path class="st1" d="M383.4,31.7c6.6,0,11.8,2.8,14.4,7.5l.6-6.1h10.1v41.9c0,14.7-8.8,23.9-23.1,23.9s-21.3-7.2-22.7-19h10.9c.7,5.7,5.1,9.1,11.8,9.1s12.3-4.7,12.3-12v-7.3c-2.8,4.1-8.2,6.7-14.5,6.7-12.5,0-20.7-9.4-20.7-22.1s8.4-22.5,21-22.5ZM385.3,66.9c7.5,0,12.1-5.3,12.1-12.9s-4.6-12.7-12.1-12.7-11.9,5.4-11.9,12.7,4.7,12.9,11.9,12.9Z"/>
    <path class="st1" d="M416.1,77.2V10.8h10.9v28.7c2.9-4.9,8.7-7.9,15.4-7.9,12.6,0,20.3,9.8,20.3,23.7s-8.3,22.9-21,22.9-12.2-2.9-14.8-8l-.7,6.9h-10.1ZM439.5,68.4c7.7,0,12.2-5.5,12.2-13.4s-4.6-13.5-12.2-13.5-12.4,5.5-12.4,13.5,4.9,13.4,12.4,13.4Z"/>
    <path class="st1" d="M471.5,77.2v-35h-8.5v-9.1h8.5v-13.7h10.9v13.7h8.6v9.1h-8.6v35h-10.9Z"/>
    <path class="st1" d="M513.1,31.8c12,0,20.3,6.7,21.4,17.3h-10.9c-1.2-5-4.9-7.6-10.1-7.6s-11.6,5.3-11.6,13.6,4.3,13.5,11.2,13.5,9.3-2.7,10.4-7.5h11c-1.3,10.3-9.9,17.3-21.4,17.3s-22.1-9.3-22.1-23.3,9-23.3,22-23.3Z"/>
  </g>
</svg>