<?xml version="1.0" encoding="UTF-8"?>
<svg id="Layer_1" xmlns="http://www.w3.org/2000/svg" version="1.1" viewBox="0 0 65.8 55.4">
  <!-- Generator: Adobe Illustrator 29.4.0, SVG Export Plug-In . SVG Version: 2.1.0 Build 152)  -->
  <defs>
    <style>
      .st0 {
        fill: #bababa;
      }
    </style>
  </defs>
  <g id="Layer_11" data-name="Layer_1">
    <g id="Nissan_Badge">
      <g>
        <path class="st0" d="M37.9,29.7h-6.5v1.4h6.8c1.3-.1,1.9-1.2,1.9-2.1s-.6-2-1.8-2.1h-5.1c-.3-.1-.4-.4-.4-.6s0-.5.5-.6h6.3v-1.4h-6.6c-1,.1-1.8,1-1.8,2s.5,1.9,1.7,2h4.9c.5.1.6.4.6.7,0,.3-.1.6-.5.7Z"/>
        <path class="st0" d="M26.2,29.7h-6.5v1.4h6.8c1.3-.1,1.9-1.2,1.9-2.1s-.6-2-1.8-2.1h-5.1c-.3-.1-.4-.4-.4-.6s.1-.5.5-.6h6.3v-1.4h-6.6c-1,.1-1.8,1-1.8,2s.5,1.9,1.7,2h4.9c.5.1.6.4.6.7,0,.3-.1.6-.5.7Z"/>
        <rect class="st0" x="14.9" y="24.2" width="1.6" height="7"/>
        <polygon class="st0" points="11.4 31.2 11.4 24.2 9.9 24.2 9.9 29.4 4.7 24.2 2.7 24.2 2.7 31.2 4.2 31.2 4.2 25.9 9.5 31.2 11.4 31.2"/>
        <polygon class="st0" points="61.6 24.2 61.6 29.4 56.4 24.2 54.4 24.2 54.4 31.2 56 31.2 56 25.9 61.2 31.2 63.2 31.2 63.2 24.2 61.6 24.2"/>
        <path class="st0" d="M46.3,24.2l-4.4,7h1.9l.8-1.3h5.1l.8,1.3h1.9l-4.4-7h-1.7ZM48.9,28.6h-3.5l1.8-2.8,1.7,2.8Z"/>
        <path class="st0" d="M11.4,20.2c3.1-9.2,11.8-15.4,21.5-15.4s18.5,6.2,21.6,15.4h0c0,.1,6.9.1,6.9.1v-.8l-2.9-.3c-1.8-.2-2.1-1-2.6-2v-.2c-4.2-8.9-13.2-14.6-23-14.6s-18.8,5.7-22.9,14.5v.2c-.6,1-1,1.8-2.7,2l-2.9.3v.8h7Z"/>
        <path class="st0" d="M54.5,35.1h0c-3.2,9.3-11.8,15.4-21.6,15.4h0c-9.8,0-18.4-6.2-21.6-15.3h0c0,0-6.8,0-6.8,0v.9l2.9.3c1.8.2,2.1,1,2.6,2v.2c4.2,8.8,13.2,14.5,22.9,14.5h0c9.8,0,18.8-5.7,22.9-14.5v-.2c.6-1,1-1.8,2.7-2l2.9-.3v-.8h-6.9Z"/>
      </g>
    </g>
  </g>
</svg>