<?xml version="1.0" encoding="UTF-8"?>
<svg id="Layer_1" xmlns="http://www.w3.org/2000/svg" version="1.1" viewBox="0 0 153.6 60.1">
  <!-- Generator: Adobe Illustrator 29.4.0, SVG Export Plug-In . SVG Version: 2.1.0 Build 152)  -->
  <defs>
    <style>
      .st0 {
        fill: #bababa;
      }
    </style>
  </defs>
  <g>
    <path class="st0" d="M128.4,41.1c-2.8,0-4.3-1.7-4.3-4.8v-.6h11.2c.2-.8.4-1.7.4-2.5,0-3.7-2.4-6.6-7.3-6.6s-9.5,4.7-9.5,9.7,3.2,7.7,8.7,7.7,4.8-.8,6.4-2l-1-2.5c-1.5,1-3,1.6-4.6,1.6ZM128.3,29.3c1.7,0,2.5,1,2.5,3.3v.7h-6.4c.7-2.4,2.2-4,3.9-4Z"/>
    <path class="st0" d="M84.2,25.5c0-3.9-3.2-6.7-8-6.7h-9.3l-7,24.8h5.9l2.6-9.1h5.1c5.8,0,10.7-3.7,10.7-9ZM71.2,31.5h-2l2.8-9.8h2.1c2.7,0,4.2,1.7,4.2,4,0,3.7-3.1,5.8-7.1,5.8Z"/>
    <path class="st0" d="M76.8,60h5.6l8.6-30.2h5.9l-3.9,13.8h5.7l4.7-16.5h-11.6l.7-2.3c.3-1.2.9-3.3,1.7-5.6.8-2.4,2.3-4,4.3-4s1.5.4,1.5,1.1-.7,1.2-.7,2.5,1.3,2.6,2.9,2.6,3.7-1.6,3.7-3.5c0-3-2.7-5-6.8-5-6,0-10,3.7-12.4,12.3"/>
    <path class="st0" d="M120.6,27h-15.1l-.7,2.7h7.3l-11.3,13.8h15.9l.7-2.7h-8.2l11.4-13.8Z"/>
    <path class="st0" d="M150.4,26.8c-2,0-4.2,1.3-5.9,3.9l1-3.6h-5.7l-4.7,16.5h5.7l2.1-7.4c.8-3,2.9-6,4.3-6s.9,2.7,3.5,2.7,2.9-1.6,2.9-3.1c0-1.9-1.4-3-3.2-3Z"/>
  </g>
  <path class="st0" d="M.7,32.5h0s0,0,0,0h0Z"/>
  <path class="st0" d="M4.9,28.6c4.8-2.2,13-2.8,23.5-1.6l3-10.5c-15.2-1.9-26.3.2-28.2,6.9v.3c-.3,1.6.3,3.2,1.7,4.9Z"/>
  <path class="st0" d="M52,25.5c-4.8,2.2-13,2.8-23.5,1.6l-3,10.5c15.2,1.9,26.3-.2,28.2-6.9v-.3c.3-1.6-.3-3.2-1.7-4.9Z"/>
  <path class="st0" d="M13.4,0l-3,10.5c17.8,1.2,35.9,8.2,41.6,15,2.2-1,3.6-2.3,4.2-3.9l-2.5,8.8c0,.1,0,.2,0,.3l2-7.1c.7-2.2,1-3.4,1-4.3,0-8.2-22.1-18-43.2-19.3Z"/>
  <path class="st0" d="M52,25.5c1.4,1.7,2,3.4,1.7,4.9l2.5-8.8c-.6,1.6-2,2.9-4.2,3.9Z"/>
  <path class="st0" d="M4.9,28.6c-2.2,1-3.6,2.3-4.2,3.9-.3,1-.4,1.7-.4,2.3,0,8.1,22.1,18,43.2,19.2l3-10.5c-17.8-1.2-35.9-8.1-41.6-14.9Z"/>
  <path class="st0" d="M3.3,23.4l-2,7.1c-.2.7-.4,1.4-.5,1.9l2.5-8.7c0-.1,0-.2,0-.3Z"/>
  <path class="st0" d="M4.9,28.6c-1.4-1.7-2-3.3-1.7-4.9l-2.5,8.7h0c.6-1.5,2-2.8,4.2-3.8Z"/>
</svg>