<?xml version="1.0" encoding="UTF-8"?>
<svg id="Layer_1" xmlns="http://www.w3.org/2000/svg" version="1.1" viewBox="0 0 162.1 40">
  <!-- Generator: Adobe Illustrator 29.4.0, SVG Export Plug-In . SVG Version: 2.1.0 Build 152)  -->
  <defs>
    <style>
      .st0 {
        fill: #bababa;
      }
    </style>
  </defs>
  <path class="st0" d="M11.3,19.3c.6-.5.9-1.3.9-2h0c0-1-.3-1.7-.9-2.2-.6-.5-1.4-.7-2.5-.7h-4.3v5.7h4.4c1,0,1.8-.3,2.4-.8Z"/>
  <path class="st0" d="M31.6,30.2v-7.9h-8v7.9h-4.3V10.5h4.3v7.8h8v-7.8h3.4C29.8,1.2,18.1-2.3,8.8,2.9c-3.2,1.7-5.8,4.4-7.6,7.6h8.1c2.5,0,4.4.7,5.7,2,1.1,1.1,1.7,2.6,1.7,4.5h0c0,1.6-.4,2.9-1.2,3.9s-1.9,1.8-3.1,2.2l4.8,7h-5.1l-4.1-6.2h-3.4v6.3H1.9c5.8,8.9,17.7,11.5,26.6,5.7,2.3-1.5,4.3-3.4,5.7-5.7h-2.6Z"/>
  <rect class="st0" x="44.7" y="22.5" width="115.6" height=".4"/>
  <path class="st0" d="M67.2,6.2l2.4,5.9h-4.8l2.4-5.9ZM65.9,2.1l-7,16.8h3.2l1.6-4h7.1l1.6,4h3.3l-7-16.8s-2.8,0-2.8,0Z"/>
  <path class="st0" d="M88.6,10.6c0,3.2-2.1,5.4-5.2,5.4h-2.9V5.2h2.9c3.1,0,5.2,2.2,5.2,5.4M83.4,2.2h-6v16.7h6c4.9,0,8.5-3.5,8.5-8.4s-3.6-8.3-8.5-8.3"/>
  <path class="st0" d="M140.8,10.6c0,3.2-2.2,5.6-5.1,5.6s-5.1-2.4-5.1-5.7,2.2-5.6,5.1-5.6c2.8,0,5.1,2.5,5.1,5.7M135.7,1.9c-4.8,0-8.4,3.7-8.4,8.7s3.6,8.6,8.3,8.6,8.4-3.7,8.4-8.7-3.6-8.6-8.3-8.6"/>
  <path class="st0" d="M54.7,7.7c0,1.6-1.2,2.6-3,2.6h-3.8v-5.1h3.8c1.9,0,3,.9,3,2.5M57.8,7.6c0-3.3-2.3-5.4-6-5.4h-7.1v16.7h3.1v-5.7h3.2l3.8,5.7h3.7l-4.3-6.3c2.4-.7,3.6-2.5,3.6-5"/>
  <rect class="st0" x="94.4" y="2.2" width="3.1" height="16.7"/>
  <path class="st0" d="M107,9.1c-3-.8-3.6-1.3-3.6-2.4s1-1.8,2.4-1.8,2.7.5,4.1,1.6h0c0,0,1.7-2.4,1.7-2.4h0c-1.6-1.4-3.6-2.2-5.7-2.1-3.2,0-5.5,2-5.5,4.9s2,4.2,5.3,5.1c2.9.7,3.4,1.3,3.4,2.4s-1,1.9-2.6,1.9-3.2-.6-4.8-2.1h0c0-.1-1.9,2.2-1.9,2.2h0c1.8,1.8,4.2,2.8,6.6,2.8,3.5,0,5.8-2,5.8-5.1,0-2.6-1.5-4.1-5.2-5"/>
  <path class="st0" d="M120.5,9.1c-3-.8-3.6-1.3-3.6-2.4s1-1.8,2.4-1.8,2.7.5,4.1,1.6h0c0,0,1.7-2.4,1.7-2.4h0c-1.6-1.5-3.7-2.2-5.8-2.2-3.2,0-5.5,2-5.5,4.9s2,4.2,5.3,5.1c2.9.7,3.4,1.3,3.4,2.4s-1,1.9-2.6,1.9-3.2-.6-4.8-2.1h0c0-.1-1.9,2.2-1.9,2.2h0c1.8,1.8,4.2,2.8,6.6,2.8,3.5,0,5.8-2,5.8-5.1,0-2.5-1.4-4-5.1-4.9"/>
  <polygon class="st0" points="157.3 2.2 157.3 13.2 149.3 2.3 149.2 2.2 146.4 2.2 146.4 18.9 149.5 18.9 149.5 7.6 157.8 18.8 157.8 18.9 160.4 18.9 160.4 2.2 157.3 2.2"/>
  <rect class="st0" x="44.7" y="22.5" width="115.6" height=".4"/>
  <path class="st0" d="M44.7,26.5h1.9v4.6h5.2v-4.6h1.9v11h-1.9v-4.6h-5.2v4.6h-1.9v-11Z"/>
  <path class="st0" d="M65.4,32h0c0-3.1,2.4-5.7,5.7-5.7s5.7,2.6,5.7,5.6h0c0,3.1-2.4,5.7-5.7,5.7-3.3.1-5.7-2.5-5.7-5.6ZM74.9,32h0c0-2.2-1.6-3.9-3.7-3.9s-3.7,1.7-3.7,3.9h0c0,2.1,1.6,3.9,3.7,3.9s3.7-1.7,3.7-3.9h0Z"/>
  <path class="st0" d="M91.5,28.3h-3.5v-1.8h8.9v1.8h-3.5v9.2h-1.9v-9.2Z"/>
  <path class="st0" d="M110.1,26.5h8.1v1.7h-6.2v2.9h5.5v1.7h-5.5v2.9h6.3v1.7h-8.2s0-10.9,0-10.9Z"/>
  <path class="st0" d="M132.7,26.5h1.9v9.2h5.8v1.7h-7.7v-10.9Z"/>
  <path class="st0" d="M152.1,35.9l1.2-1.4c1,.9,2.1,1.4,3.5,1.4s1.9-.6,1.9-1.4h0c0-.8-.4-1.2-2.5-1.7-2.3-.6-3.6-1.3-3.6-3.3h0c0-1.9,1.6-3.2,3.7-3.2s2.9.5,4,1.4l-1,1.5c-1-.7-2-1.1-3-1.1s-1.8.6-1.8,1.3h0c0,.8.5,1.2,2.6,1.7,2.3.6,3.5,1.4,3.5,3.2h0c0,2.1-1.6,3.3-3.9,3.3-1.7.1-3.3-.6-4.6-1.7Z"/>
</svg>