<?xml version="1.0" encoding="UTF-8"?>
<svg id="Layer_1" xmlns="http://www.w3.org/2000/svg" version="1.1" viewBox="0 0 81.1 55.4">
  <!-- Generator: Adobe Illustrator 29.4.0, SVG Export Plug-In . SVG Version: 2.1.0 Build 152)  -->
  <defs>
    <style>
      .st0 {
        fill-rule: evenodd;
      }

      .st0, .st1 {
        fill: #bababa;
      }
    </style>
  </defs>
  <g>
    <g>
      <rect class="st1" x="59.2" y="37.9" width="2.2" height="7.4"/>
      <polyline class="st0" points="69.7 37.9 71.3 37.9 70.7 39.9 69.6 39.9 69.7 37.9"/>
      <path class="st0" d="M73.9,39c1.5,0,2.9.4,2.9,1.8h-2.1c0-.5-.3-.7-.8-.7s-.7,0-.7.6c0,.8,1.2.6,2.2.9.9.3,1.6.8,1.6,1.7,0,1.4-1.1,2.1-3.1,2.1s-2.9-.8-2.9-2.1h2.2c0,.5.3.8.8.8s.8-.2.8-.6c0-.8-1.5-.8-2.4-1.1-.6-.2-1.1-.6-1.1-1.6-.1-.6.5-1.8,2.6-1.8"/>
      <path class="st0" d="M27.9,43.1c-.4,1.5-1.6,2.4-3.1,2.4s-3.2-1.4-3.2-3.4,1.2-3.4,3.2-3.4,2.8,1,3.1,2.4h-2.1c-.2-.4-.5-.8-1-.8-.9,0-1.2,1-1.2,1.8s.2,1.8,1.2,1.8.9-.3,1-.8h2.1"/>
      <polyline class="st0" points="12.3 37.9 15 37.9 16.2 42.3 17.4 37.9 20.1 37.9 21.2 45.5 19 45.5 18.4 41.1 17.2 45.5 15.2 45.5 14 41.1 13.4 45.5 11.2 45.5 12.3 37.9"/>
      <path class="st0" d="M46.8,41.7v3.6h-2.2v-6.5h2.2v.5c.6-.4,1.1-.7,2.2-.7s2.3.8,2.3,1.7v4.9h-2.3v-3.6c0-.6-.5-1.1-1.1-1.1-.7.2-1.1.9-1.1,1.2"/>
      <path class="st0" d="M66.6,39.5v-1.6h2.2v7.4h-2.2v-.3c-.3.3-.7.5-1.7.5s-2.8-.6-2.8-3.2,1.7-3.3,3-3.3,1.3.3,1.5.5ZM64.3,42.3c0,1,.5,1.7,1.2,1.7s.9-.2,1.1-.6v-1.9c0-.4-.5-.7-1.1-.7-.7-.2-1.2.5-1.2,1.5"/>
      <path class="st0" d="M37.1,42.1c0-2,1.3-3.4,3.4-3.4s3.4,1.4,3.4,3.4-1.3,3.4-3.4,3.4-3.4-1.4-3.4-3.4ZM41.8,42.1c0-.8-.3-1.8-1.3-1.8s-1.3,1-1.3,1.8.3,1.8,1.3,1.8c1,0,1.3-1,1.3-1.8"/>
      <path class="st0" d="M28.6,37.9h3.9c2.4,0,4.1,1.5,4.1,3.8s-1.6,3.8-4.1,3.8h-3.9v-7.6ZM31.2,43.7h1.2c.8,0,1.7-.5,1.7-2s-.9-2-1.7-2h-1.2v4"/>
      <path class="st0" d="M55.3,38.7c1.6,0,2.9.6,3,1.9v4.7h-2.3v-.6c-.5.5-1.1.8-2.1.8s-2.1-.9-2.1-2,.7-2.2,3.3-2.2.9-.3.9-.6-.4-.6-.8-.6-.8.2-.8.6h-2.1c0-1,.7-2,3-2ZM55.2,42.3c-.5,0-1,.3-1,.8s.2.6.7.6,1-.3,1.2-.9v-.6c-.2.2-.6.1-.9.1"/>
    </g>
    <path class="st1" d="M77.9,38.3h.2c.2,0,.4,0,.4-.2s-.2-.2-.3-.2h-.3s0,.4,0,.4ZM77.7,37.7h.5c.3,0,.5,0,.5.4s-.2.4-.4.4l.4.6h-.2l-.4-.6h-.2v.5h-.2s0-1.3,0-1.3ZM78.2,39.3c.5,0,1-.4,1-1s-.4-1-1-1-1,.4-1,1,.4,1,1,1M78.2,37.2c.6,0,1.2.5,1.2,1.2s-.5,1.2-1.2,1.2-1.2-.5-1.2-1.2.5-1.2,1.2-1.2"/>
  </g>
  <g>
    <path class="st1" d="M36.8,36.8c1.2-18.7,4.8-32.2,9.1-32.3,4.1,0,7.7,13.4,9.1,32.3h7.4C59.9,15.8,53.4.7,45.9.7s-10.3,7.3-13.4,18.6C29.2,8,24.4.8,18.9.8,9.4.8,1.7,24.9,1.8,54.7h7.7c-.1-27.7,4.1-50.1,9.4-50.1s8,13.5,9.3,32.2h8.6Z"/>
    <path class="st1" d="M36.4,46.4h-7.8c0,1.4.1,2.9.1,4.4h7.7v-4.4Z"/>
    <path class="st1" d="M55.5,46.4c0,2.7,0,5.4.2,8.1h7.7c0-2.8,0-5.5-.2-8.1h-7.7Z"/>
  </g>
</svg>