<?xml version="1.0" encoding="UTF-8"?>
<svg id="Layer_1" xmlns="http://www.w3.org/2000/svg" version="1.1" viewBox="0 0 167.6 40">
  <!-- Generator: Adobe Illustrator 29.4.0, SVG Export Plug-In . SVG Version: 2.1.0 Build 152)  -->
  <defs>
    <style>
      .st0 {
        fill: #bababa;
      }
    </style>
  </defs>
  <path class="st0" d="M0,0v8.4h10.6v31.5h9.3V8.4h10.6V0H0Z"/>
  <path class="st0" d="M108.4,0l-6.7,24.5h0L95.5,0h-9.9l-6.2,24.5h0L72.5,0h-10l12.5,39.9h8.6l7-26.3h0l6.7,26.3h8.6L118.4,0h-10Z"/>
  <path class="st0" d="M129.9,11.3h.1l4.4,13.4h-8.8l4.3-13.4ZM125.4,0l-14.6,39.9h9.8l2.3-7.1h14l2.4,7.1h9.8L134.4,0h-9Z"/>
  <path class="st0" d="M144.5,0l14.7,39.9h8.4L152.8,0h-8.3Z"/>
  <path class="st0" d="M54.3,27.5c0-2.5-1.9-4.2-5.9-4.2h-5.4v8.4h5.4c3.5,0,5.9-1.4,5.9-4.2ZM43,15.9h4.4c2.8,0,5.1-1.3,5.1-3.8s-1.6-3.8-5.4-3.8h-4.1v7.6ZM64.1,28.8c0,6.4-4.2,11.1-12.8,11.1h-17.5V0h15.1c8.8,0,13.1,3.6,13.1,9.7s-1.5,7-5.8,8.8h0c5.4,1.6,7.9,5.3,7.9,10.3Z"/>
</svg>